<mxfile host="app.diagrams.net" modified="2024-04-23T11:48:48.484Z" agent="Mozilla/5.0 (Macintosh; Intel Mac OS X 10_15_7) AppleWebKit/537.36 (KHTML, like Gecko) Chrome/124.0.0.0 Safari/537.36" version="22.1.16" etag="oAGd7kasHe3U6MbuJreo" type="github">
  <diagram name="第 1 页" id="tc64m-DP_SOpegKEheK2">
    <mxGraphModel>
      <root>
        <mxCell id="0" />
        <mxCell id="1" parent="0" />
      </root>
    </mxGraphModel>
  </diagram>
</mxfile>
